<svg width="132" height="132" viewBox="0 0 132 132" fill="none" xmlns="http://www.w3.org/2000/svg">
<path d="M117.531 50.0077H14.4693C12.1846 50.0077 10.4077 51.7846 10.4077 54.0692V113.723C10.4077 120.323 15.7385 125.654 22.3385 125.654H109.662C116.262 125.654 121.592 120.323 121.592 113.723V54.0692C121.592 51.7846 119.815 50.0077 117.531 50.0077ZM46.2 105.6C46.2 107.885 44.4231 109.662 42.1385 109.662H34.2693C31.9846 109.662 30.2077 107.885 30.2077 105.6V97.7308C30.2077 95.4462 31.9846 93.6692 34.2693 93.6692H42.1385C44.4231 93.6692 46.2 95.4462 46.2 97.7308V105.6ZM73.8693 105.6C73.8693 107.885 72.0923 109.662 69.8077 109.662H61.9385C59.6539 109.662 57.8769 107.885 57.8769 105.6V97.7308C57.8769 95.4462 59.6539 93.6692 61.9385 93.6692H69.8077C72.0923 93.6692 73.8693 95.4462 73.8693 97.7308V105.6ZM73.8693 77.9308C73.8693 80.2154 72.0923 81.9923 69.8077 81.9923H61.9385C59.6539 81.9923 57.8769 80.2154 57.8769 77.9308V70.0615C57.8769 67.7769 59.6539 66 61.9385 66H69.8077C72.0923 66 73.8693 67.7769 73.8693 70.0615V77.9308ZM101.792 77.9308C101.792 80.2154 100.015 81.9923 97.7308 81.9923H89.8616C87.577 81.9923 85.8 80.2154 85.8 77.9308V70.0615C85.8 67.7769 87.577 66 89.8616 66H97.7308C100.015 66 101.792 67.7769 101.792 70.0615V77.9308ZM109.662 18.2769H99.7616V14.2154C99.7616 9.9 96.2077 6.34615 91.8923 6.34615C87.577 6.34615 84.0231 9.9 84.0231 14.2154V18.2769H48.2308V14.2154C48.2308 9.9 44.6769 6.34615 40.3616 6.34615C36.0462 6.34615 32.4923 9.9 32.4923 14.2154V18.2769H22.3385C15.7385 18.2769 10.4077 23.6077 10.4077 30.2077V34.2692C10.4077 36.5538 12.1846 38.3308 14.4693 38.3308H117.785C120.069 38.3308 121.846 36.5538 121.846 34.2692V30.2077C121.592 23.6077 116.262 18.2769 109.662 18.2769Z" fill="white"/>
</svg>
