            <svg
              width="221"
              height="215"
              viewBox="0 0 221 215"
              fill="none"
              xmlns="http://www.w3.org/2000/svg"
            >
              <path
                d="M73.9191 173.118C73.9191 174.007 72.8944 174.718 71.6022 174.718C70.1319 174.852 69.1071 174.14 69.1071 173.118C69.1071 172.229 70.1319 171.517 71.424 171.517C72.7607 171.384 73.9191 172.095 73.9191 173.118ZM60.0621 171.117C59.7502 172.006 60.6413 173.029 61.978 173.296C63.1365 173.74 64.4732 173.296 64.7405 172.406C65.0079 171.517 64.1613 170.495 62.8246 170.095C61.6661 169.783 60.374 170.228 60.0621 171.117ZM79.756 170.361C78.4639 170.673 77.5728 171.517 77.7064 172.54C77.8401 173.429 78.9986 174.007 80.3353 173.696C81.6274 173.384 82.5185 172.54 82.3849 171.651C82.2512 170.806 81.0482 170.228 79.756 170.361ZM109.074 0C47.2744 0 0 46.8138 0 108.476C0 157.78 31.1004 199.97 75.5232 214.819C81.2264 215.841 83.2315 212.329 83.2315 209.44C83.2315 206.683 83.0978 191.479 83.0978 182.143C83.0978 182.143 51.9083 188.811 45.3585 168.894C45.3585 168.894 40.279 155.957 32.9718 152.623C32.9718 152.623 22.7683 145.643 33.6847 145.776C33.6847 145.776 44.7792 146.665 50.8835 157.246C60.6413 174.407 76.9935 169.472 83.3651 166.538C84.3899 159.425 87.2861 154.49 90.4942 151.556C65.5871 148.799 40.4573 145.198 40.4573 102.43C40.4573 90.2044 43.8435 84.0692 50.9726 76.2447C49.8141 73.355 46.0268 61.4403 52.131 46.058C61.4433 43.1683 82.875 58.0616 82.875 58.0616C91.7863 55.5719 101.366 54.2827 110.856 54.2827C120.347 54.2827 129.927 55.5719 138.838 58.0616C138.838 58.0616 160.27 43.1238 169.582 46.058C175.686 61.4848 171.899 73.355 170.74 76.2447C177.869 84.1137 182.236 90.2488 182.236 102.43C182.236 145.332 155.992 148.755 131.085 151.556C135.184 155.068 138.66 161.737 138.66 172.184C138.66 187.166 138.526 205.705 138.526 209.351C138.526 212.24 140.576 215.752 146.234 214.73C190.791 199.97 221 157.78 221 108.476C221 46.8138 170.874 0 109.074 0ZM43.3089 153.334C42.7296 153.779 42.8633 154.801 43.6208 155.646C44.3337 156.357 45.3585 156.668 45.9377 156.09C46.5169 155.646 46.3833 154.623 45.6258 153.779C44.9129 153.067 43.8881 152.756 43.3089 153.334ZM38.4968 149.733C38.1849 150.311 38.6304 151.022 39.5216 151.467C40.2345 151.911 41.1256 151.778 41.4375 151.156C41.7494 150.578 41.3038 149.866 40.4127 149.422C39.5216 149.155 38.8087 149.288 38.4968 149.733ZM52.9331 165.56C52.2202 166.138 52.4875 167.472 53.5123 168.316C54.5371 169.339 55.8292 169.472 56.4085 168.761C56.9877 168.183 56.7204 166.849 55.8292 166.004C54.849 164.982 53.5123 164.849 52.9331 165.56ZM47.8536 159.025C47.1407 159.469 47.1407 160.625 47.8536 161.648C48.5665 162.67 49.7696 163.115 50.3488 162.67C51.0617 162.092 51.0617 160.936 50.3488 159.914C49.725 158.891 48.5665 158.447 47.8536 159.025Z"
                fill="#ffffFF"
              />
            </svg>