<svg width="123" height="74" viewBox="0 0 123 74" fill="none" xmlns="http://www.w3.org/2000/svg">
<path fill-rule="evenodd" clip-rule="evenodd" d="M104.27 58.8801L103.73 38.8901L70.8801 48.3801C67.9201 49.0301 65.0001 49.3401 62.1401 49.3501C59.0701 49.3601 56.0501 49.0301 53.0801 48.3801L21.7001 38.7901V59.0601C22.6001 69.5901 52.8101 72.8101 62.0801 73.2501C69.5101 73.6101 98.8601 69.7301 102.72 63.6801C103.55 62.3601 104.07 60.7601 104.27 58.8801ZM117.58 24.5001V48.9301H118.35C118.88 48.9301 119.31 49.3601 119.31 49.8901V56.4601C119.31 56.9801 118.88 57.4201 118.35 57.4201H117.58V59.7201C118.56 59.9001 119.31 60.7701 119.31 61.8001C119.31 62.9601 118.35 63.9201 117.19 63.9201H113.4C112.24 63.9201 111.28 62.9701 111.28 61.8001C111.28 60.7701 112.03 59.9001 113.01 59.7201V57.4201H112.24C111.72 57.4201 111.28 56.9901 111.28 56.4601V49.8901C111.28 49.3601 111.71 48.9301 112.24 48.9301H113.01V25.9301L73.0301 38.3501C65.7901 40.0701 58.5501 40.1901 51.3101 38.3501L7.1801 25.1801L3.1901 23.9901C-1.7799 21.9601 -0.539904 17.1901 4.0901 16.0901L54.0001 1.19007C59.1501 -0.279934 64.2901 -0.509934 69.4401 1.19007L118.45 15.9101C123.78 17.2101 124.83 22.1401 118.63 24.1701L117.58 24.5001Z" fill="white"/>
</svg>

