            <svg
              width="58"
              height="58"
              viewBox="0 0 58 58"
              fill="none"
              xmlns="http://www.w3.org/2000/svg"
            >
              <rect width="58" height="58" rx="8" fill="#F0DB4F" />
              <path
                d="M52.8272 43.7535C52.36 40.8258 50.461 38.3678 44.8367 36.0744C42.8831 35.1717 40.705 34.5253 40.0558 33.037C39.8252 32.1709 39.7949 31.6829 39.9405 31.1584C40.3591 29.4567 42.3795 28.926 43.9813 29.414C45.0127 29.7616 45.9895 30.5607 46.578 31.8354C49.3325 30.0423 49.3265 30.0544 51.2498 28.8224C50.546 27.7245 50.1698 27.2182 49.7087 26.7486C48.0523 24.8883 45.7953 23.9307 42.1854 24.0039C41.5604 24.0832 40.9295 24.1685 40.3045 24.2479C38.5026 24.7053 36.7856 25.6568 35.7784 26.9316C32.7569 30.3777 33.6185 36.4099 37.2952 38.8924C40.9173 41.6249 46.2382 42.247 46.9178 44.8027C47.5791 47.9316 44.6305 48.9441 41.7 48.5843C39.5401 48.1329 38.3388 47.0289 37.0404 45.0222C34.65 46.4129 34.65 46.4129 32.1928 47.834C32.7752 49.1149 33.3879 49.6943 34.3648 50.8044C38.988 55.5192 50.5581 55.2874 52.6331 48.1512C52.718 47.9072 53.2763 46.2726 52.8272 43.7535ZM28.9225 24.382H22.9524C22.9524 29.5664 22.9282 34.7143 22.9282 39.8987C22.9282 43.1985 23.098 46.2238 22.5641 47.1509C21.6905 48.9745 19.4274 48.7489 18.396 48.3951C17.3463 47.8766 16.8124 47.1386 16.1936 46.0957C16.0237 45.7968 15.8963 45.565 15.8538 45.5467C14.2339 46.5409 12.6199 47.5412 11 48.5354C11.807 50.2005 12.9961 51.6461 14.519 52.5853C16.7942 53.9577 19.852 54.3785 23.0495 53.6405C25.1305 53.0306 26.9264 51.7681 27.8668 49.8468C29.2258 47.3277 28.9346 44.2781 28.9225 40.9051C28.9528 35.4035 28.9225 29.9019 28.9225 24.382Z"
                fill="#323330"
              />
            </svg>