          <svg
            class="pin"
            width="800"
            height="800"
            viewBox="0 0 800 800"
            fill="none"
            xmlns="http://www.w3.org/2000/svg"
          >
            <path
              d="M400 0C252.967 0 133.333 119.633 133.333 266.667C133.333 402.4 235.333 514.534 366.666 531.034V766.667C366.666 785.067 381.598 800 399.998 800C418.398 800 433.331 785.067 433.331 766.667V531.033C564.664 514.533 666.664 402.4 666.664 266.666C666.667 119.633 547.033 0 400 0ZM400 200C363.233 200 333.333 229.9 333.333 266.667C333.333 285.067 318.4 300 300 300C281.6 300 266.667 285.067 266.667 266.667C266.667 193.134 326.467 133.334 400 133.334C418.4 133.334 433.333 148.267 433.333 166.667C433.333 185.067 418.4 200 400 200Z"
              fill="white"
            />
          </svg>