<svg width="165" height="166" viewBox="0 0 165 166" fill="none" xmlns="http://www.w3.org/2000/svg">
<g clip-path="url(#clip0_44_9)">
<path d="M144.963 112.615C144.963 107.079 149.453 102.584 154.983 102.584C160.51 102.584 165 107.079 165 112.615V141.113C165 147.954 162.202 154.188 157.703 158.695C153.204 163.199 146.976 166 140.14 166H24.8602C18.0236 166 11.7964 163.199 7.29695 158.695C2.79754 154.188 0 147.954 0 141.113V24.8867C0 18.0428 2.79754 11.8089 7.29695 7.30473C11.7964 2.80052 18.0236 0 24.8602 0H53.0561C58.5863 0 63.0728 4.49447 63.0728 10.0274C63.0728 15.5635 58.5863 20.058 53.0561 20.058H24.8602C23.5409 20.058 22.3252 20.6064 21.4532 21.4761C20.5845 22.349 20.0366 23.5659 20.0366 24.8867V141.113C20.0366 142.431 20.5845 143.651 21.4532 144.521C22.3252 145.39 23.5409 145.942 24.8602 145.942H140.14C141.459 145.942 142.675 145.39 143.547 144.521C144.416 143.651 144.963 142.431 144.963 141.113V112.615ZM144.963 33.5771L99.8914 79.2714C96.0306 83.2044 89.6965 83.2564 85.7708 79.3914C81.8452 75.5265 81.7901 69.1856 85.6509 65.2558L130.24 20.058H100.394C94.8637 20.058 90.3772 15.5635 90.3772 10.0274C90.3772 4.49447 94.8637 0 100.394 0H154.983C160.51 0 165 4.49447 165 10.0274V63.5845C165 69.1207 160.51 73.6119 154.983 73.6119C149.453 73.6119 144.963 69.1207 144.963 63.5845V33.5771Z" fill="white"/>
</g>
<defs>
<clipPath id="clip0_44_9">
<rect width="165" height="166" fill="white"/>
</clipPath>
</defs>
</svg>
