<svg
    width="320"
    height="287"
    viewBox="0 0 320 287"
    fill="none"
    xmlns="http://www.w3.org/2000/svg"
>
    <path
    d="M320 143.533C320 122.313 293.453 102.203 252.752 89.7317C262.144 48.2058 257.97 15.1679 239.576 4.59055C235.336 2.10945 230.379 0.934188 224.965 0.934188V15.4944C227.966 15.4944 230.379 16.082 232.401 17.192C241.272 22.2848 245.12 41.6766 242.12 66.6182C241.402 72.7557 240.228 79.2196 238.793 85.8142C226.009 82.6801 212.051 80.2643 197.375 78.6973C188.569 66.6182 179.437 55.6491 170.241 46.0512C191.504 26.2676 211.464 15.4291 225.031 15.4291V0.868896C207.093 0.868896 183.612 13.6662 159.87 35.8656C136.127 13.7968 112.646 1.13007 94.7085 1.13007V15.6902C108.21 15.6902 128.235 26.4635 149.499 46.1165C140.367 55.7144 131.235 66.6182 122.56 78.6973C107.819 80.2643 93.8606 82.6801 81.0762 85.8795C79.576 79.3502 78.4672 73.0169 77.6845 66.9447C74.6188 42.003 78.402 22.6112 87.2075 17.4531C89.1643 16.2779 91.7081 15.7555 94.7085 15.7555V1.19536C89.2295 1.19536 84.2723 2.37062 79.9674 4.85172C61.6388 15.4291 57.5296 48.4017 66.9874 89.797C26.4166 102.333 0 122.378 0 143.533C0 164.753 26.5471 184.863 67.2483 197.333C57.8557 238.859 62.0302 271.897 80.424 282.475C84.6637 284.956 89.6209 286.131 95.0999 286.131C113.037 286.131 136.519 273.334 160.261 251.134C184.003 273.203 207.485 285.87 225.422 285.87C230.901 285.87 235.858 284.694 240.163 282.213C258.492 271.636 262.601 238.663 253.143 197.268C293.583 184.797 320 164.687 320 143.533ZM235.075 99.9826C232.662 108.405 229.662 117.089 226.27 125.773C223.596 120.55 220.791 115.326 217.725 110.103C214.725 104.88 211.529 99.7867 208.333 94.8245C217.595 96.1956 226.531 97.8932 235.075 99.9826ZM205.202 169.519C200.114 178.333 194.896 186.691 189.482 194.461C179.764 195.309 169.914 195.766 160 195.766C150.151 195.766 140.302 195.309 130.648 194.526C125.234 186.756 119.951 178.464 114.863 169.715C109.906 161.161 105.406 152.478 101.296 143.728C105.34 134.979 109.906 126.23 114.798 117.677C119.886 108.862 125.104 100.505 130.518 92.7351C140.236 91.8863 150.086 91.4293 160 91.4293C169.849 91.4293 179.698 91.8863 189.352 92.6699C194.766 100.44 200.049 108.732 205.137 117.481C210.094 126.034 214.594 134.718 218.704 143.467C214.594 152.216 210.094 160.966 205.202 169.519ZM226.27 161.031C229.792 169.78 232.793 178.529 235.271 187.017C226.726 189.107 217.725 190.869 208.398 192.241C211.594 187.213 214.79 182.055 217.79 176.766C220.791 171.543 223.596 166.254 226.27 161.031ZM160.13 230.698C154.064 224.43 147.998 217.443 141.998 209.804C147.868 210.065 153.869 210.261 159.935 210.261C166.066 210.261 172.132 210.131 178.068 209.804C172.197 217.443 166.131 224.43 160.13 230.698ZM111.602 192.241C102.34 190.869 93.404 189.172 84.8594 187.083C87.2727 178.66 90.2731 169.976 93.6649 161.292C96.3392 166.515 99.1439 171.739 102.21 176.962C105.275 182.186 108.406 187.278 111.602 192.241ZM159.804 56.3673C165.87 62.6354 171.936 69.6217 177.937 77.2609C172.067 76.9997 166.066 76.8038 160 76.8038C153.869 76.8038 147.803 76.9344 141.867 77.2609C147.737 69.6217 153.804 62.6354 159.804 56.3673ZM111.537 94.8245C108.341 99.852 105.145 105.01 102.144 110.299C99.1439 115.522 96.3392 120.746 93.6649 125.969C90.1427 117.22 87.1423 108.471 84.6637 99.9826C93.2083 97.9585 102.21 96.1956 111.537 94.8245ZM52.5071 176.57C29.4171 166.711 14.4802 153.783 14.4802 143.533C14.4802 133.282 29.4171 120.288 52.5071 110.495C58.1166 108.079 64.2479 105.924 70.5748 103.9C74.2927 116.697 79.1847 130.017 85.2507 143.663C79.2499 157.244 74.4232 170.498 70.7705 183.23C64.3131 181.206 58.1818 178.986 52.5071 176.57ZM87.5989 269.873C78.7281 264.78 74.8797 245.389 77.8802 220.447C78.5976 214.309 79.7717 207.845 81.2067 201.251C93.991 204.385 107.949 206.801 122.625 208.368C131.431 220.447 140.563 231.416 149.759 241.014C128.496 260.797 108.536 271.636 94.9694 271.636C92.0342 271.571 89.5557 270.983 87.5989 269.873ZM242.316 220.12C245.381 245.062 241.598 264.454 232.792 269.612C230.836 270.787 228.292 271.31 225.291 271.31C211.79 271.31 191.765 260.536 170.501 240.883C179.633 231.285 188.765 220.382 197.44 208.302C212.181 206.735 226.139 204.32 238.924 201.12C240.424 207.715 241.598 214.048 242.316 220.12ZM267.428 176.57C261.818 178.986 255.687 181.141 249.36 183.165C245.642 170.368 240.75 157.048 234.684 143.402C240.685 129.821 245.512 116.567 249.164 103.835C255.622 105.859 261.753 108.079 267.493 110.495C290.583 120.354 305.52 133.282 305.52 143.533C305.455 153.783 290.518 166.777 267.428 176.57Z"
    fill="#61DAFB"
    />
    <path
    d="M159.935 173.371C176.398 173.371 189.743 160.012 189.743 143.533C189.743 127.053 176.398 113.694 159.935 113.694C143.472 113.694 130.126 127.053 130.126 143.533C130.126 160.012 143.472 173.371 159.935 173.371Z"
    fill="#61DAFB"
    />
</svg>